<svg width="401" height="401" viewBox="0 0 401 401" fill="none" xmlns="http://www.w3.org/2000/svg">
<g clip-path="url(#clip0_3_101)">
<rect width="400" height="400" transform="translate(0.5 0.5)" fill="#F6F9FE"/>
<path d="M64.5538 199.5H59.408V185.965H10.2844V119.198H15.6032V180.992H52.3162V119.198H57.635V180.992H64.5538V199.5ZM125.695 185.965H120.117L111.642 165.425H81.8474L73.3719 185.965H67.8801L96.7229 116.82L125.695 185.965ZM109.479 160.452L96.7229 129.533L84.0096 160.452H109.479ZM167.94 137.274C167.94 142.895 166.124 147.292 162.491 150.463C158.859 153.634 153.857 155.219 147.486 155.219H140.049V185.965H134.73V119.198H147.4C161.093 119.198 167.94 125.223 167.94 137.274ZM162.967 137.187C162.967 128.423 157.619 124.041 146.924 124.041H140.049V150.376H147.313C151.984 150.376 155.76 149.18 158.643 146.787C161.526 144.365 162.967 141.165 162.967 137.187ZM232.195 132.56C226.487 126.247 219.338 123.09 210.747 123.09C202.905 123.09 196.102 125.973 190.336 131.739C184.599 137.504 181.731 144.452 181.731 152.582C181.731 160.711 184.614 167.659 190.379 173.424C196.145 179.19 202.963 182.073 210.833 182.073C218.992 182.073 226.083 178.974 232.109 172.776V179.608C225.795 184.509 219.179 186.959 212.26 186.959C202.084 186.959 193.565 183.659 186.704 177.057C179.843 170.455 176.412 162.297 176.412 152.582C176.412 143.039 179.857 134.91 186.747 128.193C193.637 121.476 201.853 118.117 211.395 118.117C219.525 118.117 226.458 120.625 232.195 125.641V132.56ZM292.212 185.965H285.121L252.818 152.495V185.965H247.5V119.198H252.818V149.9L283.521 119.198H290.612L258.57 151.155L292.212 185.965ZM352.705 185.965H347.127L338.652 165.425H308.857L300.382 185.965H294.89L323.733 116.82L352.705 185.965ZM336.489 160.452L323.733 129.533L311.019 160.452H336.489ZM393.653 185.965H388.291V154.96L385.783 155.219L364.637 185.965H358.237L379.858 155.046C374.237 155.046 369.739 153.331 366.367 149.9C363.195 146.701 361.61 142.693 361.61 137.879C361.61 131.854 363.383 127.241 366.929 124.041C370.503 120.813 375.635 119.198 382.323 119.198H393.653V185.965ZM388.291 150.376V124.128H382.323C372.06 124.128 366.929 128.539 366.929 137.36C366.929 146.441 372.536 150.982 383.75 150.982C385.307 150.982 386.82 150.78 388.291 150.376Z" fill="#4232C2"/>
<path d="M85.8523 277.478H80.5767V215.641H43.6475V277.478H38.3287V210.711H85.8523V277.478ZM144.619 277.478H139.387V215.641H107.776V262.862C107.776 268.339 106.854 272.274 105.009 274.667C103.308 276.887 100.598 277.997 96.8792 277.997C94.9765 277.997 93.2324 277.766 91.6468 277.305L92.7279 272.245C94.054 272.793 95.2936 273.067 96.4468 273.067C98.5801 273.067 100.094 272.375 100.987 270.991C101.967 269.435 102.457 266.696 102.457 262.775V210.711H144.619V277.478ZM216.013 277.478H210.694V222.646L158.457 278.472V210.711H163.776V265.543L216.013 209.63V277.478ZM263.536 215.641H246.109V277.478H240.791V215.641H223.321V210.711H263.536V215.641ZM315.687 277.478H308.595L276.293 244.008V277.478H270.974V210.711H276.293V241.413L306.995 210.711H314.087L282.044 242.667L315.687 277.478ZM372.637 277.478H367.059L358.583 256.938H328.789L320.314 277.478H314.822L343.665 208.333L372.637 277.478ZM356.421 251.965L343.665 221.046L330.951 251.965H356.421Z" fill="#272536"/>
<path d="M216.479 -231.651L217.745 -81.3707L-82.982 -78.8359L-84.2487 -229.116L216.479 -231.651ZM187.419 -111.173L186.659 -201.341L-53.9226 -199.313L-53.1626 -109.145L187.419 -111.173ZM246.551 -231.904L396.915 -233.171L398.182 -82.8916L247.818 -81.6242L246.551 -231.904ZM367.856 -112.694L367.096 -202.862L276.877 -202.102L277.637 -111.934L367.856 -112.694ZM98.9745 99.979L97.7078 -50.3009L398.435 -52.8357L399.702 97.4441L98.9745 99.979ZM128.034 -20.4984L128.794 69.6695L369.376 67.6417L368.616 -22.5262L128.034 -20.4984ZM-81.4619 101.5L-82.7286 -48.78L67.635 -50.0474L68.9018 100.232L-81.4619 101.5ZM-52.4025 -18.9775L-51.6425 71.1904L38.5757 70.43L37.8157 -19.7379L-52.4025 -18.9775Z" fill="#4232C2"/>
<path d="M234.513 309.914L235.706 451.472L-47.4946 453.859L-48.6877 312.301L234.513 309.914ZM207.147 423.399L206.431 338.465L-20.1291 340.374L-19.4132 425.309L207.147 423.399ZM262.833 309.675L404.433 308.482L405.626 450.04L264.026 451.234L262.833 309.675ZM377.067 421.967L376.351 337.032L291.391 337.748L292.107 422.683L377.067 421.967ZM123.857 622.297L122.664 480.739L405.865 478.352L407.058 619.91L123.857 622.297ZM151.223 508.812L151.939 593.747L378.499 591.837L377.783 506.902L151.223 508.812ZM-46.0627 623.729L-47.2559 482.171L94.3442 480.978L95.5374 622.536L-46.0627 623.729ZM-18.6973 510.244L-17.9813 595.179L66.9787 594.463L66.2628 509.528L-18.6973 510.244Z" fill="#4232C2"/>
</g>
<defs>
<clipPath id="clip0_3_101">
<rect width="400" height="400" fill="white" transform="translate(0.5 0.5)"/>
</clipPath>
</defs>
</svg>
