<svg width="101" height="101" viewBox="0 0 101 101" fill="none" xmlns="http://www.w3.org/2000/svg">
<g clip-path="url(#clip0_3_101)">
<rect width="100" height="100" transform="translate(0.5 0.5)" fill="white"/>
<path d="M16.5135 50.4999H15.227V47.1162H2.94612V30.4246H4.27583V45.873H13.4541V30.4246H14.7838V45.873H16.5135V50.4999ZM31.7989 47.1162H30.4043L28.2854 41.9811H20.8369L18.718 47.1162H17.345L24.5558 29.83L31.7989 47.1162ZM27.7449 40.7379L24.5558 33.0083L21.3774 40.7379H27.7449ZM42.36 34.9434C42.36 36.3488 41.906 37.4479 40.9979 38.2407C40.0898 39.0334 38.8394 39.4298 37.2466 39.4298H35.3872V47.1162H34.0575V30.4246H37.225C40.6484 30.4246 42.36 31.9308 42.36 34.9434ZM41.1168 34.9218C41.1168 32.7308 39.7799 31.6354 37.1061 31.6354H35.3872V38.219H37.2034C38.3709 38.219 39.315 37.9199 40.0357 37.3218C40.7565 36.7164 41.1168 35.9164 41.1168 34.9218ZM58.4238 33.7651C56.9968 32.1867 55.2094 31.3975 53.0617 31.3975C51.1014 31.3975 49.4005 32.1182 47.9591 33.5597C46.5249 35.0011 45.8078 36.738 45.8078 38.7704C45.8078 40.8028 46.5285 42.5397 47.9699 43.9811C49.4113 45.4225 51.1158 46.1433 53.0833 46.1433C55.123 46.1433 56.8959 45.3685 58.4022 43.819V45.527C56.8238 46.7523 55.1698 47.3649 53.4401 47.3649C50.896 47.3649 48.7663 46.5396 47.051 44.8892C45.3357 43.2388 44.4781 41.1992 44.4781 38.7704C44.4781 36.3848 45.3393 34.3524 47.0618 32.6732C48.7843 30.9939 50.8383 30.1543 53.2239 30.1543C55.2563 30.1543 56.9896 30.7813 58.4238 32.0353V33.7651ZM73.4281 47.1162H71.6552L63.5796 38.7488V47.1162H62.2499V30.4246H63.5796V38.1001L71.2552 30.4246H73.0281L65.0174 38.4136L73.4281 47.1162ZM88.5514 47.1162H87.1568L85.0379 41.9811H77.5894L75.4705 47.1162H74.0975L81.3082 29.83L88.5514 47.1162ZM84.4974 40.7379L81.3082 33.0083L78.1299 40.7379H84.4974ZM98.7882 47.1162H97.4477V39.365L96.8207 39.4298L91.5342 47.1162H89.9343L95.3396 39.3866C93.9342 39.3866 92.8099 38.9578 91.9667 38.1001C91.1739 37.3001 90.7775 36.2983 90.7775 35.0948C90.7775 33.5885 91.2207 32.4353 92.1072 31.6354C93.0009 30.8282 94.2838 30.4246 95.9558 30.4246H98.7882V47.1162ZM97.4477 38.219V31.657H95.9558C93.3901 31.657 92.1072 32.7597 92.1072 34.965C92.1072 37.2353 93.509 38.3704 96.3126 38.3704C96.7017 38.3704 97.0801 38.3199 97.4477 38.219Z" fill="#4232C2"/>
<path d="M21.8381 69.9944H20.5192V54.5351H11.2869V69.9944H9.95717V53.3027H21.8381V69.9944ZM36.5298 69.9944H35.2217V54.5351H27.3191V66.3404C27.3191 67.7097 27.0885 68.6935 26.6272 69.2917C26.202 69.8466 25.5245 70.1241 24.5948 70.1241C24.1191 70.1241 23.6831 70.0665 23.2867 69.9511L23.557 68.6863C23.8885 68.8232 24.1984 68.8917 24.4867 68.8917C25.02 68.8917 25.3984 68.7187 25.6218 68.3728C25.8668 67.9836 25.9894 67.2989 25.9894 66.3188V53.3027H36.5298V69.9944ZM54.3781 69.9944H53.0484V56.2865L39.9892 70.243V53.3027H41.3189V67.0106L54.3781 53.0325V69.9944ZM66.2591 54.5351H61.9024V69.9944H60.5727V54.5351H56.2051V53.3027H66.2591V54.5351ZM79.2967 69.9944H77.5238L69.4482 61.6269V69.9944H68.1185V53.3027H69.4482V60.9783L77.1238 53.3027H78.8967L70.886 61.2918L79.2967 69.9944ZM93.5343 69.9944H92.1398L90.0209 64.8593H82.5723L80.4534 69.9944H79.0805L86.2912 52.7081L93.5343 69.9944ZM89.4803 63.6161L86.2912 55.8865L83.1129 63.6161H89.4803Z" fill="#272536"/>
<path d="M54.4947 -57.5378L54.8114 -19.9678L-20.3705 -19.3341L-20.6871 -56.9041L54.4947 -57.5378ZM47.2299 -27.4184L47.0398 -49.9604L-13.1056 -49.4534L-12.9156 -26.9115L47.2299 -27.4184ZM62.0129 -57.6011L99.6038 -57.918L99.9205 -20.348L62.3296 -20.0312L62.0129 -57.6011ZM92.339 -27.7986L92.1489 -50.3406L69.5944 -50.1505L69.7844 -27.6085L92.339 -27.7986ZM25.1187 25.3696L24.802 -12.2003L99.9838 -12.834L100.3 24.7359L25.1187 25.3696ZM32.3835 -4.74972L32.5735 17.7923L92.719 17.2853L92.529 -5.25668L32.3835 -4.74972ZM-19.9904 25.7498L-20.3071 -11.8201L17.2838 -12.137L17.6005 25.433L-19.9904 25.7498ZM-12.7256 -4.36949L-12.5356 18.1725L10.019 17.9824L9.82894 -4.5596L-12.7256 -4.36949Z" fill="#4232C2"/>
<path d="M59.0031 77.8534L59.3014 113.243L-11.4986 113.84L-11.7969 78.4502L59.0031 77.8534ZM52.1618 106.225L51.9828 84.991L-4.65727 85.4684L-4.47829 106.702L52.1618 106.225ZM66.0831 77.7937L101.483 77.4954L101.781 112.885L66.3814 113.183L66.0831 77.7937ZM94.6418 105.867L94.4628 84.6329L73.2228 84.812L73.4018 106.046L94.6418 105.867ZM31.3394 155.949L31.0411 120.56L101.841 119.963L102.139 155.352L31.3394 155.949ZM38.1807 127.578L38.3597 148.812L94.9998 148.334L94.8208 127.1L38.1807 127.578ZM-11.1407 156.307L-11.439 120.918L23.9611 120.619L24.2594 156.009L-11.1407 156.307ZM-4.29931 127.936L-4.12034 149.17L17.1197 148.991L16.9407 127.757L-4.29931 127.936Z" fill="#4232C2"/>
</g>
<defs>
<clipPath id="clip0_3_101">
<rect width="100" height="100" fill="white" transform="translate(0.5 0.5)"/>
</clipPath>
</defs>
</svg>
